<?xml version="1.0" encoding="utf-8"?>
<!-- Generator: Adobe Illustrator 16.0.0, SVG Export Plug-In . SVG Version: 6.00 Build 0)  -->
<!DOCTYPE svg PUBLIC "-//W3C//DTD SVG 1.1//EN" "http://www.w3.org/Graphics/SVG/1.1/DTD/svg11.dtd">
<svg version="1.1" id="Layer_1" xmlns="http://www.w3.org/2000/svg" xmlns:xlink="http://www.w3.org/1999/xlink" x="0px" y="0px"
	 width="1008px" height="648px" viewBox="0 0 1008 648" enable-background="new 0 0 1008 648" xml:space="preserve">
<g>
	<g>
		<g>
			<path d="M840.504,253.944c-1.193,0.065-2.581,0.813-2.653,2.148c-0.032,0.588,1.422,0.292,1.447-0.185
				c0.014-0.252,0.068-0.47,0.194-0.69c0.079-0.14,0.361-0.457,0.445-0.462c0.332-0.018,0.751-0.098,0.957-0.394
				C841.086,254.089,840.734,253.932,840.504,253.944L840.504,253.944z"/>
		</g>
	</g>
	<g>
		<g>
			<g>
				<path d="M268.667,264.383c1.265-0.54,1.305-0.845,0.195,0.92c-0.879,1.397-1.788,2.775-2.694,4.155
					c-2.165,3.292-4.42,6.527-6.682,9.754c-4.309,6.15-8.711,12.233-12.986,18.406c-8.364,12.079-16.208,24.649-21.274,38.504
					c-0.156,0.425,1.72,0.202,1.911-0.32c9.808-26.822,29.492-48.32,44.505-72.201c0.078-0.124-0.083-0.207-0.167-0.234
					c-1.542-0.51-1.977-0.146-3.496,0.501C266.721,264.405,267.909,264.707,268.667,264.383L268.667,264.383z"/>
			</g>
		</g>
		<g>
			<g>
				<path d="M770.645,239.58c1.945-0.903,1.553,0.665,0.786,2.109c-1.312,2.47-2.671,4.916-4.036,7.356
					c-2.793,4.993-5.697,9.923-8.618,14.841c-5.682,9.57-11.49,19.063-17.089,28.683c-10.944,18.804-21.127,38.303-26.987,59.354
					c-0.107,0.385,1.323,0.175,1.436-0.23c11.493-41.279,38.623-75.702,58.277-113.165c0.052-0.097-0.057-0.164-0.129-0.189
					c-2.005-0.704-2.64,0.107-4.497,0.969C768.913,239.713,770.259,239.759,770.645,239.58L770.645,239.58z"/>
			</g>
		</g>
		<g>
			<g>
				<path d="M276.579,254.379c-0.333-0.3-0.826-0.452-1.132-0.595c-0.177-0.083-0.235-0.117-0.263-0.208
					c-0.025-0.084,0.214-0.365,0.338-0.494c0.294-0.307,0.203-0.685-0.214-0.799c-0.449-0.123-1.042,0.028-1.366,0.366
					c-0.451,0.469-1.056,1.25-0.45,1.849c0.237,0.234,0.54,0.353,0.841,0.476c0.141,0.057,0.197,0.08,0.261,0.107
					c0.051,0.022,0.292,0.179,0.203,0.099c0.351,0.315,0.89,0.257,1.294,0.076C276.329,255.148,276.932,254.697,276.579,254.379
					L276.579,254.379z"/>
			</g>
		</g>
		<g>
			<g>
				<path d="M299.309,286.105c0.799-4.555-5.492-1.938-7.537-1.061c-6.066,2.601-11.652,6.571-17.008,10.383
					c-4.908,3.494-9.404,7.745-13.242,12.378c-3.354,4.048-5.695,11.271,2.245,10.031c6.996-1.092,13.232-5.021,19.361-8.33
					c4.276-2.309,8.334-5.008,12.603-7.338c4.049-2.209,17.114-8.667,18.795-1.261c1.867,8.222,4.777,13.283,13.549,14.958
					c8.004,1.529,16.672-0.269,24.533-1.808c4.104-0.803,8.184-1.745,12.319-2.384c0.749-0.116,1.742-0.856,0.377-0.646
					c-7.777,1.201-15.388,3.232-23.215,4.16c-7.837,0.93-17.833,1.054-22.871-6.135c-2.079-2.966-2.064-6.667-3.118-9.997
					c-0.727-2.3-4.252-1.976-6.062-2.002c-7.858-0.116-15.387,4.737-21.874,8.604c-6.666,3.973-13.429,8.217-20.792,10.773
					c-5.603,1.945-9.034-0.448-6.226-5.727c2.084-3.918,5.661-7.138,8.877-10.119c3.554-3.292,7.383-6.051,11.413-8.733
					c2.809-1.87,5.686-3.638,8.652-5.248c1.928-1.046,8.086-4.528,7.289,0.016C297.35,286.774,299.21,286.668,299.309,286.105
					L299.309,286.105z"/>
			</g>
		</g>
		<g>
			<g>
				<path d="M447.866,290.277c-6.265-0.856-12.331,2.145-17.442,5.475c-4.446,2.897-11.944,9.07-8.869,15.086
					c2.494,4.88,10.647,4.559,15.072,3.82c4.918-0.821,9.935-3.846,14.03-6.52c3.762-2.457,8.448-6.146,8.618-11.039
					c0.16-4.61-5.266-6.945-9.073-7.211c-12.604-0.881-24.918,5.932-36.167,10.688c-1.247,0.527-0.098,1.091,0.747,0.734
					c7.679-3.248,15.181-6.783,23.25-9.005c4.629-1.275,9.865-2.236,14.535-0.663c4.656,1.568,5.767,6.193,3.315,10.082
					c-4.593,7.283-16.848,12.984-25.264,12.194c-3.023-0.284-6.116-1.613-7.546-4.411c-1.542-3.017,1.261-6.449,3.074-8.559
					c4.588-5.338,13.313-10.652,20.527-9.666C447.245,291.36,448.943,290.424,447.866,290.277L447.866,290.277z"/>
			</g>
		</g>
		<g>
			<g>
				<path d="M462.899,306.152c-0.281,0.282-0.552,0.605-0.712,0.972c-0.302,0.691,0.412,0.85,0.951,0.867
					c0.453,0.014,0.978-0.137,1.366-0.366c0.318-0.188,0.256-0.371-0.103-0.382c-0.808-0.025,0.008-1.033,0.239-1.266
					c0.299-0.301-0.266-0.294-0.446-0.276C463.797,305.741,463.195,305.854,462.899,306.152L462.899,306.152z"/>
			</g>
		</g>
		<g>
			<g>
				<path d="M548.795,282.098c2.323-1.749,4.44-3.748,6.835-5.404c2.38-1.646,0.852,5.223,0.824,5.318
					c-0.623,2.129-1.783,4.086-2.901,5.985c-3.579,6.074-8.593,11.233-11.332,17.798c-0.216,0.519,0.91,0.407,1.095,0.36
					c7.641-1.925,14.718-8.826,20.932-13.322c7.979-5.774,17.814-14.34,27.96-15.528c6.328-0.741,7.036,6.198,6.22,10.829
					c-1.201,6.822-4.919,13.439-2.584,20.435c4.105,12.301,21.122,13.46,31.794,13.912c0.729,0.031,2.06-1.038,0.752-1.093
					c-15.164-0.642-35.155-4.801-30.415-24.486c1.474-6.118,6.788-21.47-4.904-20.703c-9.06,0.595-17.747,7.419-24.879,12.396
					c-4.706,3.284-9.301,6.725-13.98,10.047c-3.327,2.361-7.116,5.533-11.152,6.55c0.365,0.12,0.729,0.24,1.095,0.36
					c4.091-9.803,14.724-17.448,15.035-28.673c0.169-6.082-10.904,4.123-11.941,4.903
					C546.368,282.444,548.308,282.465,548.795,282.098L548.795,282.098z"/>
			</g>
		</g>
		<g>
			<g>
				<path d="M695.328,239.613c2.505-2.079,0.89,1.764,0.586,3.144c-0.596,2.708-1.575,5.327-2.596,7.899
					c-1.873,4.72-4.37,9.19-6.944,13.557c-5.624,9.539-12.319,18.393-18.211,27.761c-12.502,19.875-23.56,42.019-29.948,64.651
					c-0.233,0.827,1.208,0.845,1.393,0.191c6.603-23.39,18.163-46.258,31.244-66.689c10.396-16.238,25.208-32.808,27.406-52.714
					c0.05-0.443-0.549-0.589-0.875-0.474c-1.347,0.475-1.891,1.024-3.027,1.968C693.599,239.536,694.749,240.094,695.328,239.613
					L695.328,239.613z"/>
			</g>
		</g>
		<g>
			<g>
				<path d="M700.308,290.604c-2.511-4.168-8.014-0.505-10.273,1.997c-1.396,1.546-2.716,3.783-2.257,5.942
					c0.42,1.97,2.705,2.691,4.462,2.662c3.961-0.067,8.304-3.268,10.125-6.68c0.659-1.235,1.13-2.927-0.268-3.838
					c-1.911-1.247-5.021-0.368-7.009,0.132c-0.866,0.218-0.69,0.854,0.172,0.638c2.499-0.628,7.749-1.315,5.877,2.854
					c-1.278,2.845-4.652,5.518-7.704,6.08c-1.562,0.288-3.321-0.293-4.051-1.781c-0.702-1.433,0.075-3.217,0.82-4.458
					c1.454-2.421,6.323-7.033,8.656-3.159C699.127,291.439,700.503,290.929,700.308,290.604L700.308,290.604z"/>
			</g>
		</g>
		<g>
			<g>
				<path d="M798.183,223.986c0.742,2.786-0.865,6.126-1.887,8.634c-1.713,4.201-3.885,8.223-6.062,12.196
					c-5.177,9.448-10.928,18.575-16.542,27.766c-5.671,9.284-10.468,18.985-15.529,28.613
					c-7.791,14.822-15.426,30.032-18.597,46.608c-0.133,0.695,1.346,0.496,1.465-0.123c3.382-17.68,11.873-33.745,20.185-49.525
					c4.835-9.177,9.485-18.29,14.897-27.137c5.65-9.235,11.374-18.436,16.533-27.959c2.615-4.827,8.566-13.53,6.985-19.462
					C799.461,222.956,798.012,223.344,798.183,223.986L798.183,223.986z"/>
			</g>
		</g>
		<g>
			<g>
				<path d="M725.673,275.996c-1.108,0.166-2.196,0.497-3.297,0.661c-0.508,0.076-1.285,0.916-0.356,0.902
					c15.118-0.209,29.56-4.956,44.076-8.666c17.649-4.511,35.746-7.968,53.683-11.12c0.723-0.127,1.164-1.072,0.172-0.897
					c-16.42,2.886-32.726,6.399-49.007,9.977c-8.147,1.79-16.146,4.228-24.238,6.242c-4.594,1.143-9.23,2.084-13.912,2.782
					c-1.738,0.259-3.488,0.419-5.238,0.574c-1.279,0.113-7.271,1.223-2.054,0.443C726.232,276.784,726.668,275.847,725.673,275.996
					L725.673,275.996z"/>
			</g>
		</g>
		<g>
			<g>
				<path d="M637.901,292.508c1.043-1.409,1.495-2.413,1.762-4.201c0.026-0.179-0.122-0.247-0.274-0.277
					c-5.289-1.073-11.089,3.506-14.705,6.777c-2.46,2.225-7.66,9.067-1.174,9.734c5.007,0.515,10.206-5.05,13.216-8.247
					c4.524-4.805,9.511-10.396,12.166-16.531c0.182-0.419-1.25-0.256-1.445,0.195c-3.424,7.909-10.604,15.825-17.266,21.078
					c-2.077,1.639-5.686,4.065-8.055,1.74c-1.589-1.56,0.877-4.602,1.787-5.749c1.836-2.312,4.343-4.178,6.802-5.766
					c2.295-1.483,10.263-4.724,5.845,1.243C636.186,293.009,637.638,292.865,637.901,292.508L637.901,292.508z"/>
			</g>
		</g>
	</g>
</g>
</svg>
